<?xml version="1.0" encoding="utf-8"?><svg version="1.1" id="volume-icon" xmlns="http://www.w3.org/2000/svg" xmlns:xlink="http://www.w3.org/1999/xlink" x="0px" y="0px" viewBox="0 0 16 16" style="enable-background:new 0 0 16 16;" xml:space="preserve"><path d="M14.9,8c0-0.4-0.3-0.8-0.7-0.8c0,0,0,0,0,0l-2.1,0V5.2c0-0.4-0.4-0.7-0.8-0.7c-0.4,0-0.7,0.3-0.7,0.7l0,2.1H8.5
    C8.1,7.2,7.7,7.6,7.7,8c0,0.4,0.3,0.8,0.7,0.8c0,0,0,0,0.1,0h2.1v2.1c0,0.4,0.4,0.7,0.8,0.7c0.4,0,0.7-0.3,0.7-0.7l0-2.1h2.1
    C14.6,8.8,14.9,8.4,14.9,8z"/><path d="M10.1,1.5c0-0.4-0.3-0.8-0.7-0.8c-0.1,0-0.3,0-0.4,0.1l-6.9,4c-1.7,1-2.3,3.2-1.3,5c0.3,0.6,0.8,1,1.3,1.3l6.9,4    c0.4,0.2,0.8,0.1,1-0.3c0.1-0.1,0.1-0.2,0.1-0.4v-1.9c-0.5-0.1-1-0.4-1.5-0.7v1.3L2.8,9.9C1.8,9.3,1.4,8,2,6.9    c0.2-0.3,0.5-0.6,0.8-0.8l5.8-3.3v1.3c0.4-0.3,1-0.5,1.5-0.7V1.5z"/></svg>